<?xml version="1.0" standalone="no"?>
<!DOCTYPE svg PUBLIC "-//W3C//DTD SVG 20010904//EN"
 "http://www.w3.org/TR/2001/REC-SVG-20010904/DTD/svg10.dtd">
<svg version="1.0" xmlns="http://www.w3.org/2000/svg"
 width="142.000000pt" height="142.000000pt" viewBox="0 0 142.000000 142.000000"
 preserveAspectRatio="xMidYMid meet">
<metadata>
Created by potrace 1.11, written by Peter Selinger 2001-2013
</metadata>
<g transform="translate(0.000000,142.000000) scale(0.100000,-0.100000)"
fill="#000000" stroke="none">
<path d="M704 1163 c-21 -8 -62 -18 -90 -22 -29 -4 -59 -13 -69 -21 -14 -12
-21 -11 -46 4 -27 16 -32 16 -54 2 -13 -8 -25 -26 -27 -38 -2 -16 -11 -24 -28
-26 -54 -6 -70 -13 -83 -37 -7 -14 -28 -33 -47 -44 -54 -28 -94 -92 -95 -149
0 -26 3 -62 7 -79 8 -37 -4 -43 -34 -16 -17 16 -20 16 -36 0 -14 -14 -14 -21
-4 -37 6 -11 12 -31 12 -44 0 -37 29 -62 67 -57 7 1 13 -5 13 -14 0 -22 1 -27
12 -55 6 -14 11 -50 12 -80 2 -86 41 -133 121 -146 22 -3 42 -9 45 -14 3 -4
15 -10 26 -14 12 -4 24 -15 27 -26 6 -23 53 -44 81 -36 11 3 26 0 33 -6 16
-13 77 -2 93 17 9 11 26 13 69 9 42 -5 68 -1 106 13 42 16 55 17 80 7 16 -6
39 -10 51 -8 12 2 34 -2 49 -10 34 -18 72 -6 108 32 14 15 37 38 51 51 14 13
26 34 26 47 0 14 6 24 14 24 22 0 63 38 68 63 3 13 1 33 -3 44 -4 12 -1 43 8
74 12 40 13 60 5 81 -6 15 -6 28 -1 28 12 0 39 43 44 71 6 31 -11 82 -34 103
-11 10 -35 18 -54 19 -46 3 -57 38 -21 62 30 19 31 59 3 78 -22 16 -52 12 -70
-9 -15 -18 -44 -2 -64 36 -24 47 -72 75 -126 73 -26 -1 -57 -6 -69 -13 -18
-10 -22 -9 -26 7 -3 10 -17 26 -30 36 -41 30 -76 36 -120 20z m-168 -409 c-6
-16 48 -64 72 -64 25 0 43 14 46 36 2 10 11 21 21 23 15 2 17 -1 11 -20 -4
-13 -10 -48 -13 -77 -6 -59 1 -53 -112 -91 l-63 -21 -40 45 c-22 25 -46 45
-54 45 -8 0 -14 6 -14 14 0 20 28 28 38 10 15 -28 55 -13 75 28 15 31 16 40 5
58 -11 17 -11 22 2 30 18 11 33 2 26 -16z m150 -372 c18 -10 27 -8 48 9 24 19
27 19 43 4 12 -13 26 -15 54 -11 21 3 40 2 44 -4 3 -5 15 -10 26 -10 25 0 24
-6 -7 -47 -72 -95 -222 -103 -308 -17 -20 20 -36 41 -36 47 1 24 27 46 47 41
12 -3 30 -1 40 4 10 6 20 7 23 3 3 -5 15 -13 26 -19z m-179 -79 c9 -7 31 -13
47 -14 30 0 30 -1 8 -11 -42 -21 -112 35 -95 78 6 15 8 14 15 -11 4 -17 15
-36 25 -42z m483 41 c0 -43 -52 -76 -88 -55 -14 9 -11 10 14 11 33 0 70 31 59
49 -3 6 -1 11 4 11 6 0 11 -7 11 -16z"/>
</g>
</svg>
